/* XPM */
static char *help[]={
"64 64 67 2",
"Qt c None",
"## c #0c0c0b",
".7 c #222220",
".8 c #494946",
".0 c #55544e",
".3 c #555554",
".6 c #5c5c5b",
"#a c #60605d",
".9 c #727271",
"#. c #828281",
".5 c #888885",
".X c #898987",
".S c #918c79",
".W c #918f87",
".V c #94895a",
".Z c #949490",
".4 c #959591",
".J c #978b5a",
".Q c #979383",
".h c #989488",
".t c #99906f",
".Y c #9a9a96",
".d c #abaaa8",
".T c #aea684",
".l c #b1a578",
".1 c #b2b2b0",
".B c #b4a66d",
".L c #b5aa7a",
".v c #b5b2a8",
".n c #b5b4b3",
".D c #b7b6b6",
".e c #babab9",
".c c #c3c3c3",
".P c #cfbd76",
".R c #d0d0cd",
".m c #d1d1d1",
".U c #d2c07b",
".C c #d9d9d9",
".i c #e3d395",
".O c #e8d88f",
".E c #e9d895",
".k c #ead992",
".o c #eddb98",
".K c #efefef",
".s c #f0de8d",
".I c #f1df8e",
".N c #f2e4a9",
".H c #f3e6ac",
".w c #f4e29b",
".A c #f5e494",
".z c #f5eab9",
".f c #f6f6f6",
".j c #f7e8aa",
".M c #f7f0d6",
".g c #f7f7f7",
".r c #f8edb9",
".p c #f8f2db",
".G c #f9efcd",
".y c #f9f4e2",
".F c #f9f4e3",
".x c #faf5e7",
".q c #faf6e8",
".u c #fafafa",
".b c #fcfcfc",
".2 c #fdfdfc",
".a c #fefefd",
".# c #fefefe",
"QtQtQtQtQtQtQtQtQtQtQtQtQtQtQtQtQtQtQtQtQtQtQtQtQtQtQtQtQtQtQtQtQtQtQtQtQtQtQtQtQtQtQtQtQtQtQtQtQtQtQtQtQtQtQtQtQtQtQtQtQtQtQtQt",
"QtQtQtQtQtQtQtQtQtQtQtQtQtQtQtQtQtQtQtQtQtQtQtQtQtQtQtQtQtQtQtQtQtQtQtQtQtQtQtQtQtQtQtQtQtQtQtQtQtQtQtQtQtQtQtQtQtQtQtQtQtQtQtQt",
"QtQtQtQtQtQtQtQtQtQtQtQtQtQtQtQtQtQtQtQtQtQtQtQtQtQtQtQtQtQtQtQtQtQtQtQtQtQtQtQtQtQtQtQtQtQtQtQtQtQtQtQtQtQtQtQtQtQtQtQtQtQtQtQt",
"QtQtQtQtQtQtQtQtQtQtQtQtQtQtQtQtQtQtQtQtQtQtQtQtQtQtQtQtQtQtQtQtQtQtQtQtQtQtQtQtQtQtQtQtQtQtQtQtQtQtQtQtQtQtQtQtQtQtQtQtQtQtQtQt",
"QtQtQtQtQtQtQtQtQtQtQtQtQtQtQtQtQtQtQtQtQtQtQtQtQtQtQtQtQtQtQtQtQtQtQtQtQtQtQtQtQtQtQtQtQtQtQtQtQtQtQtQtQtQtQtQtQtQtQtQtQtQtQtQt",
"QtQtQtQtQtQtQtQtQtQtQtQtQtQtQtQtQtQtQtQtQtQtQtQtQtQtQtQtQtQtQtQtQtQtQtQtQtQtQtQtQtQtQtQtQtQtQtQtQtQtQtQtQtQtQtQtQtQtQtQtQtQtQtQt",
"QtQtQtQtQtQtQtQtQtQtQtQtQtQtQtQtQtQtQtQtQtQtQtQtQtQtQtQtQtQtQtQtQtQtQtQtQtQtQtQtQtQtQtQtQtQtQtQtQtQtQtQtQtQtQtQtQtQtQtQtQtQtQtQt",
"QtQtQtQtQtQtQtQtQtQtQtQtQtQtQtQtQtQtQtQtQtQtQtQtQtQtQtQtQtQtQtQtQtQtQtQtQtQtQtQtQtQtQtQtQtQtQtQtQtQtQtQtQtQtQtQtQtQtQtQtQtQtQtQt",
"QtQtQtQtQtQtQtQtQtQtQtQtQtQtQtQtQtQtQtQtQtQtQtQtQtQtQtQtQtQtQtQtQtQtQtQt.#.#.#.#.a.a.a.aQtQtQtQtQtQtQtQtQtQtQtQtQtQtQtQtQtQtQtQt",
"QtQtQtQtQtQtQtQtQtQtQtQtQtQtQtQtQtQtQtQtQtQtQtQtQtQtQtQtQtQtQtQtQtQtQtQt.#.#.#.#.a.a.a.aQtQtQtQtQtQtQtQtQtQtQtQtQtQtQtQtQtQtQtQt",
"QtQtQtQtQtQtQtQtQtQtQtQtQtQtQtQtQtQtQtQtQtQtQtQtQtQtQtQtQtQtQtQtQtQtQtQt.#.#.#.#.a.a.a.aQtQtQtQtQtQtQtQtQtQtQtQtQtQtQtQtQtQtQtQt",
"QtQtQtQtQtQtQtQtQtQtQtQtQtQtQtQtQtQtQtQtQtQtQtQtQtQtQtQtQtQtQtQtQtQtQtQt.#.#.#.#.a.a.a.aQtQtQtQtQtQtQtQtQtQtQtQtQtQtQtQtQtQtQtQt",
"QtQtQtQtQtQtQtQtQtQtQtQtQtQtQtQtQtQtQtQtQtQtQtQtQtQtQtQt.b.b.b.b.c.c.c.c.d.d.d.d.e.e.e.e.f.f.f.f.#.#.#.#QtQtQtQtQtQtQtQtQtQtQtQt",
"QtQtQtQtQtQtQtQtQtQtQtQtQtQtQtQtQtQtQtQtQtQtQtQtQtQtQtQt.b.b.b.b.c.c.c.c.d.d.d.d.e.e.e.e.f.f.f.f.#.#.#.#QtQtQtQtQtQtQtQtQtQtQtQt",
"QtQtQtQtQtQtQtQtQtQtQtQtQtQtQtQtQtQtQtQtQtQtQtQtQtQtQtQt.b.b.b.b.c.c.c.c.d.d.d.d.e.e.e.e.f.f.f.f.#.#.#.#QtQtQtQtQtQtQtQtQtQtQtQt",
"QtQtQtQtQtQtQtQtQtQtQtQtQtQtQtQtQtQtQtQtQtQtQtQtQtQtQtQt.b.b.b.b.c.c.c.c.d.d.d.d.e.e.e.e.f.f.f.f.#.#.#.#QtQtQtQtQtQtQtQtQtQtQtQt",
"QtQtQtQtQtQtQtQtQtQtQtQtQtQtQtQtQtQtQtQtQtQtQtQt.g.g.g.g.h.h.h.h.i.i.i.i.j.j.j.j.k.k.k.k.l.l.l.l.m.m.m.m.#.#.#.#QtQtQtQtQtQtQtQt",
"QtQtQtQtQtQtQtQtQtQtQtQtQtQtQtQtQtQtQtQtQtQtQtQt.g.g.g.g.h.h.h.h.i.i.i.i.j.j.j.j.k.k.k.k.l.l.l.l.m.m.m.m.#.#.#.#QtQtQtQtQtQtQtQt",
"QtQtQtQtQtQtQtQtQtQtQtQtQtQtQtQtQtQtQtQtQtQtQtQt.g.g.g.g.h.h.h.h.i.i.i.i.j.j.j.j.k.k.k.k.l.l.l.l.m.m.m.m.#.#.#.#QtQtQtQtQtQtQtQt",
"QtQtQtQtQtQtQtQtQtQtQtQtQtQtQtQtQtQtQtQtQtQtQtQt.g.g.g.g.h.h.h.h.i.i.i.i.j.j.j.j.k.k.k.k.l.l.l.l.m.m.m.m.#.#.#.#QtQtQtQtQtQtQtQt",
"QtQtQtQtQtQtQtQtQtQtQtQtQtQtQtQtQtQtQtQt.a.a.a.a.n.n.n.n.o.o.o.o.p.p.p.p.q.q.q.q.r.r.r.r.s.s.s.s.t.t.t.t.u.u.u.uQtQtQtQtQtQtQtQt",
"QtQtQtQtQtQtQtQtQtQtQtQtQtQtQtQtQtQtQtQt.a.a.a.a.n.n.n.n.o.o.o.o.p.p.p.p.q.q.q.q.r.r.r.r.s.s.s.s.t.t.t.t.u.u.u.uQtQtQtQtQtQtQtQt",
"QtQtQtQtQtQtQtQtQtQtQtQtQtQtQtQtQtQtQtQt.a.a.a.a.n.n.n.n.o.o.o.o.p.p.p.p.q.q.q.q.r.r.r.r.s.s.s.s.t.t.t.t.u.u.u.uQtQtQtQtQtQtQtQt",
"QtQtQtQtQtQtQtQtQtQtQtQtQtQtQtQtQtQtQtQt.a.a.a.a.n.n.n.n.o.o.o.o.p.p.p.p.q.q.q.q.r.r.r.r.s.s.s.s.t.t.t.t.u.u.u.uQtQtQtQtQtQtQtQt",
"QtQtQtQtQtQtQtQtQtQtQtQtQtQtQtQtQtQtQtQt.#.#.#.#.v.v.v.v.w.w.w.w.x.x.x.x.y.y.y.y.z.z.z.z.A.A.A.A.B.B.B.B.C.C.C.CQtQtQtQtQtQtQtQt",
"QtQtQtQtQtQtQtQtQtQtQtQtQtQtQtQtQtQtQtQt.#.#.#.#.v.v.v.v.w.w.w.w.x.x.x.x.y.y.y.y.z.z.z.z.A.A.A.A.B.B.B.B.C.C.C.CQtQtQtQtQtQtQtQt",
"QtQtQtQtQtQtQtQtQtQtQtQtQtQtQtQtQtQtQtQt.#.#.#.#.v.v.v.v.w.w.w.w.x.x.x.x.y.y.y.y.z.z.z.z.A.A.A.A.B.B.B.B.C.C.C.CQtQtQtQtQtQtQtQt",
"QtQtQtQtQtQtQtQtQtQtQtQtQtQtQtQtQtQtQtQt.#.#.#.#.v.v.v.v.w.w.w.w.x.x.x.x.y.y.y.y.z.z.z.z.A.A.A.A.B.B.B.B.C.C.C.CQtQtQtQtQtQtQtQt",
"QtQtQtQtQtQtQtQtQtQtQtQtQtQtQtQtQtQtQtQtQtQtQtQt.D.D.D.D.E.E.E.E.F.F.F.F.G.G.G.G.H.H.H.H.I.I.I.I.J.J.J.J.K.K.K.KQtQtQtQtQtQtQtQt",
"QtQtQtQtQtQtQtQtQtQtQtQtQtQtQtQtQtQtQtQtQtQtQtQt.D.D.D.D.E.E.E.E.F.F.F.F.G.G.G.G.H.H.H.H.I.I.I.I.J.J.J.J.K.K.K.KQtQtQtQtQtQtQtQt",
"QtQtQtQtQtQtQtQtQtQtQtQtQtQtQtQtQtQtQtQtQtQtQtQt.D.D.D.D.E.E.E.E.F.F.F.F.G.G.G.G.H.H.H.H.I.I.I.I.J.J.J.J.K.K.K.KQtQtQtQtQtQtQtQt",
"QtQtQtQtQtQtQtQtQtQtQtQtQtQtQtQtQtQtQtQtQtQtQtQt.D.D.D.D.E.E.E.E.F.F.F.F.G.G.G.G.H.H.H.H.I.I.I.I.J.J.J.J.K.K.K.KQtQtQtQtQtQtQtQt",
"QtQtQtQtQtQtQtQtQtQtQtQtQtQtQtQtQtQtQtQtQtQtQtQt.f.f.f.f.L.L.L.L.M.M.M.M.N.N.N.N.O.O.O.O.P.P.P.P.Q.Q.Q.Q.#.#.#.#QtQtQtQtQtQtQtQt",
"QtQtQtQtQtQtQtQtQtQtQtQtQtQtQtQtQtQtQtQtQtQtQtQt.f.f.f.f.L.L.L.L.M.M.M.M.N.N.N.N.O.O.O.O.P.P.P.P.Q.Q.Q.Q.#.#.#.#QtQtQtQtQtQtQtQt",
"QtQtQtQtQtQtQtQtQtQtQtQtQtQtQtQtQtQtQtQtQtQtQtQt.f.f.f.f.L.L.L.L.M.M.M.M.N.N.N.N.O.O.O.O.P.P.P.P.Q.Q.Q.Q.#.#.#.#QtQtQtQtQtQtQtQt",
"QtQtQtQtQtQtQtQtQtQtQtQtQtQtQtQtQtQtQtQtQtQtQtQt.f.f.f.f.L.L.L.L.M.M.M.M.N.N.N.N.O.O.O.O.P.P.P.P.Q.Q.Q.Q.#.#.#.#QtQtQtQtQtQtQtQt",
"QtQtQtQtQtQtQtQtQtQtQtQtQtQtQtQtQtQtQtQtQtQtQtQt.R.R.R.R.S.S.S.S.T.T.T.T.U.U.U.U.V.V.V.V.W.W.W.W.K.K.K.KQtQtQtQtQtQtQtQtQtQtQtQt",
"QtQtQtQtQtQtQtQtQtQtQtQtQtQtQtQtQtQtQtQtQtQtQtQt.R.R.R.R.S.S.S.S.T.T.T.T.U.U.U.U.V.V.V.V.W.W.W.W.K.K.K.KQtQtQtQtQtQtQtQtQtQtQtQt",
"QtQtQtQtQtQtQtQtQtQtQtQtQtQtQtQtQtQtQtQtQtQtQtQt.R.R.R.R.S.S.S.S.T.T.T.T.U.U.U.U.V.V.V.V.W.W.W.W.K.K.K.KQtQtQtQtQtQtQtQtQtQtQtQt",
"QtQtQtQtQtQtQtQtQtQtQtQtQtQtQtQtQtQtQtQtQtQtQtQt.R.R.R.R.S.S.S.S.T.T.T.T.U.U.U.U.V.V.V.V.W.W.W.W.K.K.K.KQtQtQtQtQtQtQtQtQtQtQtQt",
"QtQtQtQtQtQtQtQtQtQtQtQtQtQtQtQtQtQtQtQtQtQtQtQt.X.X.X.X.Y.Y.Y.Y.Z.Z.Z.Z.0.0.0.0.1.1.1.1.2.2.2.2QtQtQtQtQtQtQtQtQtQtQtQtQtQtQtQt",
"QtQtQtQtQtQtQtQtQtQtQtQtQtQtQtQtQtQtQtQtQtQtQtQt.X.X.X.X.Y.Y.Y.Y.Z.Z.Z.Z.0.0.0.0.1.1.1.1.2.2.2.2QtQtQtQtQtQtQtQtQtQtQtQtQtQtQtQt",
"QtQtQtQtQtQtQtQtQtQtQtQtQtQtQtQtQtQtQtQtQtQtQtQt.X.X.X.X.Y.Y.Y.Y.Z.Z.Z.Z.0.0.0.0.1.1.1.1.2.2.2.2QtQtQtQtQtQtQtQtQtQtQtQtQtQtQtQt",
"QtQtQtQtQtQtQtQtQtQtQtQtQtQtQtQtQtQtQtQtQtQtQtQt.X.X.X.X.Y.Y.Y.Y.Z.Z.Z.Z.0.0.0.0.1.1.1.1.2.2.2.2QtQtQtQtQtQtQtQtQtQtQtQtQtQtQtQt",
"QtQtQtQtQtQtQtQtQtQtQtQtQtQtQtQtQtQtQtQtQtQtQtQt.3.3.3.3.4.4.4.4.5.5.5.5.6.6.6.6QtQtQtQtQtQtQtQtQtQtQtQtQtQtQtQtQtQtQtQtQtQtQtQt",
"QtQtQtQtQtQtQtQtQtQtQtQtQtQtQtQtQtQtQtQtQtQtQtQt.3.3.3.3.4.4.4.4.5.5.5.5.6.6.6.6QtQtQtQtQtQtQtQtQtQtQtQtQtQtQtQtQtQtQtQtQtQtQtQt",
"QtQtQtQtQtQtQtQtQtQtQtQtQtQtQtQtQtQtQtQtQtQtQtQt.3.3.3.3.4.4.4.4.5.5.5.5.6.6.6.6QtQtQtQtQtQtQtQtQtQtQtQtQtQtQtQtQtQtQtQtQtQtQtQt",
"QtQtQtQtQtQtQtQtQtQtQtQtQtQtQtQtQtQtQtQtQtQtQtQt.3.3.3.3.4.4.4.4.5.5.5.5.6.6.6.6QtQtQtQtQtQtQtQtQtQtQtQtQtQtQtQtQtQtQtQtQtQtQtQt",
"QtQtQtQtQtQtQtQtQtQtQtQtQtQtQtQtQtQtQtQtQtQtQtQt.7.7.7.7.8.8.8.8.9.9.9.9#.#.#.#.QtQtQtQtQtQtQtQtQtQtQtQtQtQtQtQtQtQtQtQtQtQtQtQt",
"QtQtQtQtQtQtQtQtQtQtQtQtQtQtQtQtQtQtQtQtQtQtQtQt.7.7.7.7.8.8.8.8.9.9.9.9#.#.#.#.QtQtQtQtQtQtQtQtQtQtQtQtQtQtQtQtQtQtQtQtQtQtQtQt",
"QtQtQtQtQtQtQtQtQtQtQtQtQtQtQtQtQtQtQtQtQtQtQtQt.7.7.7.7.8.8.8.8.9.9.9.9#.#.#.#.QtQtQtQtQtQtQtQtQtQtQtQtQtQtQtQtQtQtQtQtQtQtQtQt",
"QtQtQtQtQtQtQtQtQtQtQtQtQtQtQtQtQtQtQtQtQtQtQtQt.7.7.7.7.8.8.8.8.9.9.9.9#.#.#.#.QtQtQtQtQtQtQtQtQtQtQtQtQtQtQtQtQtQtQtQtQtQtQtQt",
"QtQtQtQtQtQtQtQtQtQtQtQtQtQtQtQtQtQtQtQtQtQtQtQtQtQtQtQt#########a#a#a#aQtQtQtQtQtQtQtQtQtQtQtQtQtQtQtQtQtQtQtQtQtQtQtQtQtQtQtQt",
"QtQtQtQtQtQtQtQtQtQtQtQtQtQtQtQtQtQtQtQtQtQtQtQtQtQtQtQt#########a#a#a#aQtQtQtQtQtQtQtQtQtQtQtQtQtQtQtQtQtQtQtQtQtQtQtQtQtQtQtQt",
"QtQtQtQtQtQtQtQtQtQtQtQtQtQtQtQtQtQtQtQtQtQtQtQtQtQtQtQt#########a#a#a#aQtQtQtQtQtQtQtQtQtQtQtQtQtQtQtQtQtQtQtQtQtQtQtQtQtQtQtQt",
"QtQtQtQtQtQtQtQtQtQtQtQtQtQtQtQtQtQtQtQtQtQtQtQtQtQtQtQt#########a#a#a#aQtQtQtQtQtQtQtQtQtQtQtQtQtQtQtQtQtQtQtQtQtQtQtQtQtQtQtQt",
"QtQtQtQtQtQtQtQtQtQtQtQtQtQtQtQtQtQtQtQtQtQtQtQtQtQtQtQtQtQtQtQtQtQtQtQtQtQtQtQtQtQtQtQtQtQtQtQtQtQtQtQtQtQtQtQtQtQtQtQtQtQtQtQt",
"QtQtQtQtQtQtQtQtQtQtQtQtQtQtQtQtQtQtQtQtQtQtQtQtQtQtQtQtQtQtQtQtQtQtQtQtQtQtQtQtQtQtQtQtQtQtQtQtQtQtQtQtQtQtQtQtQtQtQtQtQtQtQtQt",
"QtQtQtQtQtQtQtQtQtQtQtQtQtQtQtQtQtQtQtQtQtQtQtQtQtQtQtQtQtQtQtQtQtQtQtQtQtQtQtQtQtQtQtQtQtQtQtQtQtQtQtQtQtQtQtQtQtQtQtQtQtQtQtQt",
"QtQtQtQtQtQtQtQtQtQtQtQtQtQtQtQtQtQtQtQtQtQtQtQtQtQtQtQtQtQtQtQtQtQtQtQtQtQtQtQtQtQtQtQtQtQtQtQtQtQtQtQtQtQtQtQtQtQtQtQtQtQtQtQt",
"QtQtQtQtQtQtQtQtQtQtQtQtQtQtQtQtQtQtQtQtQtQtQtQtQtQtQtQtQtQtQtQtQtQtQtQtQtQtQtQtQtQtQtQtQtQtQtQtQtQtQtQtQtQtQtQtQtQtQtQtQtQtQtQt",
"QtQtQtQtQtQtQtQtQtQtQtQtQtQtQtQtQtQtQtQtQtQtQtQtQtQtQtQtQtQtQtQtQtQtQtQtQtQtQtQtQtQtQtQtQtQtQtQtQtQtQtQtQtQtQtQtQtQtQtQtQtQtQtQt",
"QtQtQtQtQtQtQtQtQtQtQtQtQtQtQtQtQtQtQtQtQtQtQtQtQtQtQtQtQtQtQtQtQtQtQtQtQtQtQtQtQtQtQtQtQtQtQtQtQtQtQtQtQtQtQtQtQtQtQtQtQtQtQtQt",
"QtQtQtQtQtQtQtQtQtQtQtQtQtQtQtQtQtQtQtQtQtQtQtQtQtQtQtQtQtQtQtQtQtQtQtQtQtQtQtQtQtQtQtQtQtQtQtQtQtQtQtQtQtQtQtQtQtQtQtQtQtQtQtQt"};
